HIERARCHY
ROOT Hips
{
	OFFSET 0.000000 103.266502 0.000000
	CHANNELS 6 Xposition Yposition Zposition Xrotation Yrotation Zrotation 
	JOINT Spine
	{
		OFFSET -0.002400 12.777504 0.315300
		CHANNELS 3 Xrotation Yrotation Zrotation
		JOINT Spine1
		{
			OFFSET -0.002067 5.816869 0.032633
			CHANNELS 3 Xrotation Yrotation Zrotation
			JOINT Spine1_split
			{
				OFFSET -0.002067 5.816869 0.032633
				CHANNELS 3 Xrotation Yrotation Zrotation
				JOINT Spine2
				{
					OFFSET -0.002067 5.816869 0.032633
					CHANNELS 3 Xrotation Yrotation Zrotation
					JOINT Neck
					{
						OFFSET -0.003700 21.199493 -0.826900
						CHANNELS 3 Xrotation Yrotation Zrotation
						JOINT Head
						{
							OFFSET 0.000000 20.442200 4.834800
							CHANNELS 3 Xrotation Yrotation Zrotation
							JOINT HeadTop_End
							{
								OFFSET 0.000000 34.668396 4.968400
								CHANNELS 3 Xrotation Yrotation Zrotation
								End Site
								{
									OFFSET 0.000000 0.000000 0.000000
								}
							}
						}
					}
					JOINT LeftShoulder
					{
						OFFSET 3.288150 8.794197 -1.372250
						CHANNELS 3 Xrotation Yrotation Zrotation
						JOINT LeftShoulder_split
						{
							OFFSET 3.288150 8.794197 -1.372250
							CHANNELS 3 Xrotation Yrotation Zrotation
							JOINT LeftArm
							{
								OFFSET 11.953299 -2.279007 -0.146200
								CHANNELS 3 Xrotation Yrotation Zrotation
								JOINT LeftForeArm
								{
									OFFSET 18.448900 0.000000 0.000000
									CHANNELS 3 Xrotation Yrotation Zrotation
									JOINT LeftHand
									{
										OFFSET 29.527798 0.000000 0.000000
										CHANNELS 3 Xrotation Yrotation Zrotation
										JOINT LeftHandThumb1
										{
											OFFSET 10.739754 -2.369614 9.225399
											CHANNELS 3 Xrotation Yrotation Zrotation
											JOINT LeftHandThumb2
											{
												OFFSET 4.926170 -2.844131 2.844125
												CHANNELS 3 Xrotation Yrotation Zrotation
												JOINT LeftHandThumb3
												{
													OFFSET 4.614891 -2.664413 2.664409
													CHANNELS 3 Xrotation Yrotation Zrotation
													JOINT LeftHandThumb4
													{
														OFFSET 4.432465 -2.559082 2.559083
														CHANNELS 3 Xrotation Yrotation Zrotation
														End Site
														{
															OFFSET 0.000000 0.000000 0.000000
														}
													}
												}
											}
										}
										JOINT LeftHandIndex1
										{
											OFFSET 26.467674 0.187653 6.405298
											CHANNELS 3 Xrotation Yrotation Zrotation
											JOINT LeftHandIndex2
											{
												OFFSET 8.792900 0.000000 0.000000
												CHANNELS 3 Xrotation Yrotation Zrotation
												JOINT LeftHandIndex3
												{
													OFFSET 10.075203 0.000000 0.000000
													CHANNELS 3 Xrotation Yrotation Zrotation
													End Site
													{
														OFFSET 0.000000 0.000000 0.000000
													}
												}
											}
										}
										JOINT LeftHandMiddle1
										{
											OFFSET 25.764404 0.000000 0.000000
											CHANNELS 3 Xrotation Yrotation Zrotation
											JOINT LeftHandMiddle2
											{
												OFFSET 9.393974 0.000000 0.000000
												CHANNELS 3 Xrotation Yrotation Zrotation
												JOINT LeftHandMiddle3
												{
													OFFSET 10.771950 0.000000 0.000000
													CHANNELS 3 Xrotation Yrotation Zrotation
													End Site
													{
														OFFSET 0.000000 0.000000 0.000000
													}
												}
											}
										}
										JOINT LeftHandRing1
										{
											OFFSET 24.660927 0.144547 -6.225808
											CHANNELS 3 Xrotation Yrotation Zrotation
											JOINT LeftHandRing2
											{
												OFFSET 9.393799 0.000000 0.000000
												CHANNELS 3 Xrotation Yrotation Zrotation
												JOINT LeftHandRing3
												{
													OFFSET 9.928497 0.000000 0.000000
													CHANNELS 3 Xrotation Yrotation Zrotation
													End Site
													{
														OFFSET 0.000000 0.000000 0.000000
													}
												}
											}
										}
										JOINT LeftHandPinky1
										{
											OFFSET 23.655350 0.125290 -12.815412
											CHANNELS 3 Xrotation Yrotation Zrotation
											JOINT LeftHandPinky2
											{
												OFFSET 8.425102 0.000000 0.000000
												CHANNELS 3 Xrotation Yrotation Zrotation
												JOINT LeftHandPinky3
												{
													OFFSET 8.147003 0.000000 0.000000
													CHANNELS 3 Xrotation Yrotation Zrotation
													End Site
													{
														OFFSET 0.000000 0.000000 0.000000
													}
												}
											}
										}
									}
								}
							}
						}
					}
					JOINT RightShoulder
					{
						OFFSET -3.249400 8.794197 -1.372250
						CHANNELS 3 Xrotation Yrotation Zrotation
						JOINT RightShoulder_split
						{
							OFFSET -3.249400 8.794197 -1.372250
							CHANNELS 3 Xrotation Yrotation Zrotation
							JOINT RightArm
							{
								OFFSET -11.953299 -2.279007 -0.146200
								CHANNELS 3 Xrotation Yrotation Zrotation
								JOINT RightForeArm
								{
									OFFSET -18.448900 0.000000 0.000000
									CHANNELS 3 Xrotation Yrotation Zrotation
									JOINT RightHand
									{
										OFFSET -29.527802 0.000000 0.000000
										CHANNELS 3 Xrotation Yrotation Zrotation
										JOINT RightHandThumb1
										{
											OFFSET -10.739754 -2.369614 9.225399
											CHANNELS 3 Xrotation Yrotation Zrotation
											JOINT RightHandThumb2
											{
												OFFSET -4.926170 -2.844131 2.844125
												CHANNELS 3 Xrotation Yrotation Zrotation
												JOINT RightHandThumb3
												{
													OFFSET -4.614891 -2.664413 2.664409
													CHANNELS 3 Xrotation Yrotation Zrotation
													JOINT RightHandThumb4
													{
														OFFSET -4.432465 -2.559082 2.559083
														CHANNELS 3 Xrotation Yrotation Zrotation
														End Site
														{
															OFFSET 0.000000 0.000000 0.000000
														}
													}
												}
											}
										}
										JOINT RightHandIndex1
										{
											OFFSET -26.467674 0.187653 6.405298
											CHANNELS 3 Xrotation Yrotation Zrotation
											JOINT RightHandIndex2
											{
												OFFSET -8.792900 0.000000 0.000000
												CHANNELS 3 Xrotation Yrotation Zrotation
												JOINT RightHandIndex3
												{
													OFFSET -10.075203 0.000000 0.000000
													CHANNELS 3 Xrotation Yrotation Zrotation
													End Site
													{
														OFFSET 0.000000 0.000000 0.000000
													}
												}
											}
										}
										JOINT RightHandMiddle1
										{
											OFFSET -25.764404 0.000000 0.000000
											CHANNELS 3 Xrotation Yrotation Zrotation
											JOINT RightHandMiddle2
											{
												OFFSET -9.393974 0.000000 0.000000
												CHANNELS 3 Xrotation Yrotation Zrotation
												JOINT RightHandMiddle3
												{
													OFFSET -10.771950 0.000000 0.000000
													CHANNELS 3 Xrotation Yrotation Zrotation
													End Site
													{
														OFFSET 0.000000 0.000000 0.000000
													}
												}
											}
										}
										JOINT RightHandRing1
										{
											OFFSET -24.660927 0.144547 -6.225808
											CHANNELS 3 Xrotation Yrotation Zrotation
											JOINT RightHandRing2
											{
												OFFSET -9.393799 0.000000 0.000000
												CHANNELS 3 Xrotation Yrotation Zrotation
												JOINT RightHandRing3
												{
													OFFSET -9.928497 0.000000 0.000000
													CHANNELS 3 Xrotation Yrotation Zrotation
													End Site
													{
														OFFSET 0.000000 0.000000 0.000000
													}
												}
											}
										}
										JOINT RightHandPinky1
										{
											OFFSET -23.655350 0.125290 -12.815412
											CHANNELS 3 Xrotation Yrotation Zrotation
											JOINT RightHandPinky2
											{
												OFFSET -8.425102 0.000000 0.000000
												CHANNELS 3 Xrotation Yrotation Zrotation
												JOINT RightHandPinky3
												{
													OFFSET -8.147003 0.000000 0.000000
													CHANNELS 3 Xrotation Yrotation Zrotation
													End Site
													{
														OFFSET 0.000000 0.000000 0.000000
													}
												}
											}
										}
									}
								}
							}
						}
					}
				}
			}
		}
	}
	JOINT LeftUpLeg
	{
		OFFSET 11.394100 -6.187798 -0.413800
		CHANNELS 3 Xrotation Yrotation Zrotation
		JOINT LeftLeg
		{
			OFFSET 0.430247 -32.302673 3.732800
			CHANNELS 3 Xrotation Yrotation Zrotation
			JOINT LeftFoot
			{
				OFFSET -0.430247 -48.264931 -6.423300
				CHANNELS 3 Xrotation Yrotation Zrotation
				JOINT LeftToeBase
				{
					OFFSET 4.230900 -16.068199 23.438400
					CHANNELS 3 Xrotation Yrotation Zrotation
					JOINT LeftToe_End
					{
						OFFSET 4.510700 0.695400 19.974600
						CHANNELS 3 Xrotation Yrotation Zrotation
						End Site
						{
							OFFSET 0.000000 0.000000 0.000000
						}
					}
				}
			}
		}
	}
	JOINT RightUpLeg
	{
		OFFSET -11.333700 -6.187798 -0.413800
		CHANNELS 3 Xrotation Yrotation Zrotation
		JOINT RightLeg
		{
			OFFSET -0.430392 -32.302628 3.733000
			CHANNELS 3 Xrotation Yrotation Zrotation
			JOINT RightFoot
			{
				OFFSET 0.430392 -48.264973 -6.423500
				CHANNELS 3 Xrotation Yrotation Zrotation
				JOINT RightToeBase
				{
					OFFSET -4.230900 -16.068199 23.438400
					CHANNELS 3 Xrotation Yrotation Zrotation
					JOINT RightToe_End
					{
						OFFSET -4.510700 0.695400 19.974600
						CHANNELS 3 Xrotation Yrotation Zrotation
						End Site
						{
							OFFSET 0.000000 0.000000 0.000000
						}
					}
				}
			}
		}
	}
}
MOTION
Frames: 4
Frame Time: 0.016667
-0.301198 89.715836 0.171821 3.020392 -58.275133 6.520081 11.191484 0.139510 -2.738808 8.434584 0.027689 -5.592317 0.000000 0.000000 0.000000 8.457039 0.027887 -5.591869 -21.555847 25.063369 12.062734 -0.293895 25.465775 -3.209027 -0.000000 0.000000 0.000000 -6.221629 -11.503781 -4.023775 0.000000 0.000000 0.000000 -23.062223 9.568421 -36.639648 0.046078 -43.168923 -0.011175 22.743784 -5.686010 15.979366 -1.064240 -7.954958 8.490072 2.373392 19.986126 -2.038323 0.808203 1.237760 2.631750 0.000000 -0.000000 -0.000001 13.340876 -1.006702 10.682283 -0.167589 0.303382 -31.105675 0.000000 0.000000 0.000001 8.495428 -0.329590 -0.915331 0.231492 0.661189 -29.901875 0.000001 -0.000001 -0.000006 6.111740 3.150927 -16.210937 0.047034 0.322401 -30.125509 0.000000 0.000000 -0.000002 -5.636030 7.709845 -13.878635 0.224349 0.276563 -46.588351 -0.000000 -0.000001 0.000001 -5.488220 10.658253 2.466465 0.000000 0.000000 0.000000 -41.473906 -26.755582 30.079043 24.955643 111.862851 -23.308681 -8.702499 12.423131 -9.801871 0.265008 10.061114 -10.888496 1.383758 -17.412864 3.016246 3.342362 -13.253726 -8.262780 -0.000000 -0.000000 0.000001 19.443628 11.174426 -13.340211 -0.118660 -0.322714 18.035570 -0.000001 0.000003 -0.000001 4.320493 2.436964 -4.811727 0.349126 -0.461236 26.890332 -0.000000 -0.000002 -0.000000 -7.005626 -10.695135 5.719833 0.111885 -0.089176 26.155878 -0.000003 0.000001 0.000003 -19.433545 -20.238202 5.987845 0.223766 -0.085797 36.844578 -0.000002 0.000000 0.000001 -38.836917 8.057409 26.427546 42.579802 -7.215204 -9.677479 -5.192985 -2.782222 -10.043141 -0.327599 1.238421 0.837254 0.000000 -0.000005 -0.000000 -36.666477 -6.170754 -25.574624 47.501944 1.669014 -7.598036 -14.418857 3.655706 21.028088 -0.322815 -0.997436 -0.837141 -0.000000 0.000001 0.000000 
-0.364351 89.752762 0.361554 2.504027 -58.253918 5.741972 11.159308 0.107390 -2.798126 8.343010 -0.023356 -5.688292 0.000000 0.000000 0.000000 8.371672 0.015605 -5.630541 -20.102599 24.801810 13.023840 -0.857428 25.691089 -3.215340 0.000000 0.000000 -0.000001 -6.221588 -11.502590 -4.090412 0.000000 0.000000 0.000000 -23.051554 9.454040 -36.707411 0.206697 -43.116379 0.092952 22.538439 -5.934199 15.432491 -0.983728 -7.447193 8.678388 2.534430 20.452371 -1.857959 0.923806 1.716437 2.859951 0.000002 0.000001 -0.000001 13.342564 -1.008452 10.138462 -0.166786 0.303605 -31.649625 0.000001 -0.000001 0.000003 8.486654 -0.324275 -1.459185 0.234610 0.662891 -30.445783 -0.000001 0.000000 -0.000001 6.111059 3.157129 -16.754618 0.047447 0.326152 -30.669387 -0.000001 -0.000001 0.000001 -5.627377 7.708070 -14.423266 0.226464 0.278307 -47.132338 -0.000000 0.000001 -0.000000 -5.459876 9.874455 2.586600 0.000000 0.000000 0.000000 -40.532535 -25.915534 31.217376 24.790610 110.210764 -23.382710 -8.889542 12.458764 -8.493633 0.272606 9.992003 -10.913349 1.407686 -17.475148 2.991988 3.353955 -13.319392 -8.290912 -0.000002 0.000003 -0.000000 19.443713 11.174483 -13.267060 -0.118592 -0.322781 18.108992 -0.000002 -0.000000 -0.000004 4.319294 2.436262 -4.738286 0.349516 -0.461509 26.963705 -0.000000 -0.000000 -0.000000 -7.006191 -10.695766 5.792794 0.111867 -0.089671 26.229282 -0.000003 -0.000001 0.000001 -19.433749 -20.238479 6.060281 0.224082 -0.086065 36.918009 -0.000000 -0.000001 0.000001 -38.494041 7.527859 26.517714 42.849093 -6.975606 -9.692202 -5.454488 -2.751977 -10.103465 -0.327599 1.238422 0.837254 0.000000 0.000003 0.000000 -36.103881 -6.665334 -25.496502 47.158440 1.909615 -7.548082 -14.424683 3.641489 21.025482 -0.322829 -0.997388 -0.837116 -0.000000 -0.000001 0.000000 
-0.584491 89.775444 0.554650 1.931058 -58.227527 4.899327 11.071815 0.074034 -2.860926 8.093936 -0.081179 -5.786255 0.000000 0.000000 0.000000 8.133083 -0.021279 -5.670397 -18.473602 24.513723 14.037476 -1.509213 25.960391 -3.156110 0.000000 0.000000 0.000001 -6.237333 -11.503388 -4.274839 0.000000 0.000000 0.000000 -23.016752 9.112622 -36.903632 0.376362 -42.965814 0.192089 22.289800 -6.181472 14.845768 -0.897579 -6.894464 8.882387 2.708426 20.960138 -1.662705 1.047410 2.237646 3.107422 0.000002 0.000000 -0.000000 13.344379 -1.010301 9.546761 -0.165976 0.306030 -32.241444 -0.000000 0.000000 0.000002 8.477201 -0.316716 -2.050872 0.237945 0.664737 -31.037664 -0.000001 -0.000001 -0.000001 6.110040 3.163927 -17.346126 0.047836 0.330108 -31.261219 0.000000 -0.000001 -0.000001 -5.619450 7.706679 -15.015759 0.228753 0.280203 -47.724116 0.000000 -0.000000 -0.000000 -5.454992 9.092290 2.875203 0.000000 0.000000 0.000000 -39.552041 -24.929122 32.615270 32.279225 109.755191 -30.680042 -5.944206 12.171663 -6.772574 0.293741 9.798400 -10.982926 1.474597 -17.649523 2.924098 3.380604 -13.503573 -8.372145 0.000000 -0.000002 0.000001 19.444027 11.174668 -13.062139 -0.118462 -0.322976 18.314507 0.000002 -0.000000 -0.000001 4.315982 2.434227 -4.532576 0.350637 -0.462244 27.169224 -0.000000 0.000002 0.000002 -7.007860 -10.697462 5.997235 0.111877 -0.091077 26.434811 0.000001 0.000001 0.000000 -19.434398 -20.239244 6.263173 0.224715 -0.086861 37.123533 -0.000002 0.000000 0.000002 -38.107131 7.170396 26.809061 43.089522 -6.996407 -9.731540 -5.785677 -2.718878 -10.164551 -0.327599 1.238427 0.837254 0.000000 0.000001 0.000000 -35.415999 -7.161327 -25.337917 46.893289 2.068973 -7.511443 -14.585314 3.611639 21.027014 -0.322797 -0.997336 -0.837123 -0.000000 0.000001 0.000000 
-0.883378 89.812477 0.747617 1.336377 -58.195992 4.031944 10.941364 0.040496 -2.924938 7.716264 -0.138317 -5.878634 0.000000 0.000000 0.000000 7.767789 -0.077106 -5.711219 -16.813185 24.183080 14.998418 -2.116841 26.147941 -2.929927 -0.000000 -0.000000 0.000000 -6.272269 -11.473021 -4.554316 0.000000 0.000000 0.000000 -22.962481 8.580386 -37.210249 0.522196 -42.740448 0.264833 22.035020 -6.411162 14.252130 -0.807490 -6.305769 9.098580 2.892307 21.501292 -1.455670 1.176683 2.793014 3.369832 -0.000000 -0.000001 0.000000 13.346304 -1.012345 8.916810 -0.165086 0.308708 -32.871535 0.000000 0.000001 0.000003 8.471088 -0.308410 -2.680887 0.241582 0.666615 -31.667803 -0.000002 0.000001 -0.000002 6.108674 3.171304 -17.975943 0.048359 0.334421 -31.891304 0.000000 -0.000001 0.000000 -5.612727 7.705890 -15.646329 0.231246 0.282256 -48.354225 -0.000000 0.000000 0.000000 -5.464604 8.274671 3.337419 0.000000 0.000000 0.000000 -38.620072 -23.706190 34.142879 37.232734 108.739214 -35.689811 -3.949279 11.691911 -4.741127 0.325854 9.501098 -11.089662 1.574324 -17.916669 2.815864 3.421045 -13.786489 -8.496983 0.000000 0.000001 -0.000001 19.444459 11.174878 -12.747402 -0.118169 -0.323185 18.630207 0.000000 -0.000003 -0.000001 4.310942 2.431059 -4.216694 0.352342 -0.463349 27.484862 -0.000002 -0.000003 0.000003 -7.005734 -10.700419 6.312118 0.111844 -0.093228 26.750438 0.000003 0.000003 0.000002 -19.434438 -20.236047 6.577729 0.225754 -0.088093 37.439108 0.000001 0.000001 0.000002 -37.671553 6.951967 27.200568 43.243133 -7.169489 -9.774277 -6.125781 -2.683997 -10.217167 -0.327599 1.238422 0.837254 0.000000 -0.000000 0.000000 -34.626802 -7.665177 -25.125766 46.604146 2.187824 -7.475164 -14.799761 3.571761 21.023817 -0.322804 -0.997227 -0.837146 -0.000000 0.000001 0.000000 
